<?xml version="1.0" standalone="no"?>
<!DOCTYPE svg PUBLIC "-//W3C//DTD SVG 20010904//EN"
 "http://www.w3.org/TR/2001/REC-SVG-20010904/DTD/svg10.dtd">
<svg version="1.0" xmlns="http://www.w3.org/2000/svg"
 width="700.000000pt" height="700.000000pt" viewBox="0 0 700.000000 700.000000"
 preserveAspectRatio="xMidYMid meet">
<metadata>
Created by potrace 1.11, written by Peter Selinger 2001-2013
</metadata>
<g transform="translate(0.000000,700.000000) scale(0.100000,-0.100000)"
fill="#000000" stroke="none">
<path d="M2639 6948 c-6 -24 -14 -47 -18 -53 -4 -5 -16 -32 -26 -60 -56 -155
-168 -346 -326 -555 -183 -241 -285 -359 -563 -644 -240 -247 -345 -388 -467
-626 -89 -172 -135 -298 -154 -420 -33 -220 -34 -235 -21 -372 20 -219 126
-578 237 -804 47 -93 156 -287 181 -319 4 -5 47 -62 95 -125 174 -231 424
-496 609 -645 113 -91 554 -385 578 -385 15 0 -75 143 -139 219 -32 39 -229
266 -235 271 -3 3 -19 23 -35 45 -17 22 -33 42 -36 45 -13 11 -138 199 -176
265 -94 163 -253 490 -288 590 -59 170 -76 429 -40 615 41 213 87 329 209 523
112 179 86 139 306 450 39 54 70 100 70 102 0 3 15 27 33 53 76 107 261 427
298 512 69 159 83 226 83 385 0 128 -2 148 -29 230 l-29 90 -18 -65 c-89 -314
-156 -452 -335 -690 -94 -126 -224 -256 -367 -367 -43 -32 -114 -68 -122 -61
-8 9 39 74 103 142 209 222 383 456 491 656 60 113 128 312 153 446 25 137 35
421 18 494 -6 25 -11 57 -11 73 -1 40 -16 33 -29 -15z"/>
<path d="M3755 6969 c-163 -38 -308 -107 -401 -192 -76 -70 -187 -215 -250
-326 -43 -77 -107 -221 -99 -221 3 0 0 -11 -5 -24 -8 -22 -24 -147 -34 -277
-5 -51 -8 -79 -21 -194 -3 -22 -8 -67 -11 -99 -8 -78 -9 -82 -40 -184 -28 -92
-81 -226 -120 -303 -27 -53 -130 -192 -275 -369 -288 -353 -405 -574 -448
-851 -17 -114 -22 -293 -8 -354 3 -11 8 -42 11 -70 15 -112 111 -390 183 -528
32 -61 126 -211 143 -227 3 -3 38 -49 79 -103 64 -86 156 -193 305 -358 22
-25 73 -81 111 -124 189 -214 251 -267 353 -301 121 -41 208 -15 297 88 34 40
95 153 95 176 0 5 6 15 14 22 12 9 16 5 22 -25 11 -58 -20 -141 -92 -251 -19
-28 -34 -54 -34 -58 0 -25 157 12 251 58 142 71 402 295 561 485 233 278 358
542 449 951 37 169 43 216 43 365 1 353 -42 528 -209 850 -61 118 -220 380
-389 640 -278 429 -392 695 -471 1100 -34 173 8 368 109 514 42 61 80 94 153
133 62 33 75 44 51 45 -7 1 -44 6 -83 12 -83 13 -184 13 -240 0z m-160 -2222
c11 -2 43 -8 70 -11 230 -33 462 -134 636 -277 155 -128 250 -253 294 -384 36
-107 65 -239 65 -301 0 -104 -67 -375 -109 -437 -39 -60 -204 -220 -293 -285
-143 -105 -387 -198 -568 -218 -25 -2 -61 -7 -80 -10 -47 -7 -294 -7 -356 1
-27 3 -69 8 -94 12 -25 3 -54 7 -66 8 -122 16 -282 66 -374 117 -113 64 -254
179 -355 291 -59 65 -129 197 -161 303 -36 117 -38 297 -6 415 83 305 357 573
720 703 62 22 262 67 357 79 37 5 293 0 320 -6z"/>
<path d="M4349 6936 c-2 -3 -17 -7 -33 -10 -47 -9 -131 -54 -174 -94 -130
-119 -187 -345 -157 -615 23 -208 146 -464 423 -880 92 -137 223 -347 296
-470 31 -52 112 -217 139 -282 47 -114 130 -388 153 -505 10 -55 13 -728 3
-800 -21 -150 -118 -466 -184 -600 -71 -143 -182 -316 -260 -405 -103 -116
-213 -217 -303 -278 -89 -60 -98 -72 -46 -63 71 14 278 85 359 124 229 112
444 351 580 647 62 134 140 357 159 455 2 14 11 57 20 96 8 39 18 95 21 125 4
30 10 83 15 119 9 69 5 445 -5 520 -14 98 -37 228 -51 285 -16 65 -70 238 -84
270 -5 11 -25 61 -45 110 -36 89 -105 230 -141 291 -28 46 -246 368 -253 374
-32 25 -339 470 -420 609 -59 101 -108 201 -122 251 -7 25 -14 50 -15 55 -22
79 -24 299 -4 388 16 68 75 189 117 239 18 22 33 42 33 44 0 5 -16 5 -21 0z"/>
<path d="M4705 6729 c-27 -11 -64 -31 -82 -45 -41 -31 -90 -130 -99 -202 -11
-86 -11 -103 -1 -152 4 -25 10 -56 13 -70 32 -171 111 -332 313 -633 351 -527
512 -854 641 -1296 21 -75 42 -154 46 -176 4 -22 8 -49 10 -60 26 -144 25
-495 -1 -665 -3 -14 -7 -41 -10 -60 -14 -99 -83 -338 -131 -458 -84 -210 -163
-336 -393 -627 -83 -104 -151 -194 -151 -198 0 -17 240 166 345 263 184 170
331 357 402 510 17 36 40 85 51 110 97 209 171 535 173 760 1 111 -5 214 -17
275 -2 11 -7 40 -10 65 -24 184 -106 462 -207 700 -116 275 -254 534 -388 727
-238 343 -307 452 -382 604 -158 319 -181 467 -88 579 21 25 41 51 45 58 11
18 -20 14 -79 -9z"/>
<path d="M221 2884 c-27 -35 -19 -64 44 -153 29 -42 84 -121 122 -176 70 -103
510 -747 547 -800 95 -137 265 -344 361 -440 107 -108 83 -98 695 -285 236
-72 294 -92 343 -117 l49 -24 -7 -157 c-3 -86 -8 -198 -10 -248 l-4 -90 411 0
410 -1 -4 475 c-5 535 5 476 -88 516 -25 11 -184 81 -355 156 -170 75 -375
163 -455 194 -305 121 -402 163 -620 272 -327 164 -567 316 -995 633 -233 172
-334 238 -392 259 -29 10 -34 8 -52 -14z"/>
<path d="M6710 2883 c-45 -19 -135 -81 -405 -278 -323 -236 -634 -445 -662
-445 -4 0 -14 -6 -22 -14 -19 -16 -283 -152 -426 -218 -197 -92 -231 -107
-335 -148 -58 -23 -172 -70 -255 -105 -133 -56 -183 -78 -300 -130 -16 -7 -73
-32 -125 -55 -122 -53 -186 -83 -282 -127 l-78 -36 0 -474 0 -473 409 0 409 0
-5 138 c-3 75 -6 191 -7 256 l-1 120 70 24 c95 32 420 129 645 192 102 29 207
64 234 77 45 23 131 101 196 178 184 218 414 532 645 880 44 66 82 122 85 125
13 13 259 389 275 419 19 39 14 96 -11 105 -9 3 -16 6 -17 5 -1 0 -18 -7 -37
-16z"/>
</g>
</svg>
